#!OML:ASF F:\VICON\USERDATA\INSTALL\rory3\rory3.ASF
:FULLY-SPECIFIED
:DEGREES
251
root 1.38975 17.6136 7.65995 10.3819 37.2045 3.45828
lowerback 31.0453 2.43321 2.60463
upperback 9.17997 4.44699 2.85678
thorax -6.63584 2.24032 0.103842
lowerneck -13.3645 -7.31798 -13.6007
upperneck 33.8551 -8.02855 5.43306
head 14.8301 -4.23821 3.29999
rclavicle 8.74653e-014 -1.90833e-014
rhumerus -0.853203 12.2321 -78.8132
rradius 36.0906
rwrist 4.44708
rhand -17.8497 7.35912
rfingers 7.12502
rthumb 8.41541 -22.4532
lclavicle 8.74653e-014 -1.90833e-014
lhumerus -29.1573 -27.5023 100.195
lradius 68.7116
lwrist -3.09371
lhand -23.7875 22.2076
lfingers 7.12502
lthumb 2.68262 52.1704
rfemur -36.8167 -14.3807 21.9374
rtibia 41.3724
rfoot -9.49297 -6.46543
rtoes 6.9547
lfemur -35.0915 -2.62833 -17.1639
ltibia 32.275
lfoot -6.3456 -8.69869
ltoes -14.1887
252
root 1.40695 17.5902 7.65185 10.8991 36.9214 3.4331
lowerback 31.4766 2.45433 2.72694
upperback 9.36289 4.51816 2.81107
thorax -6.61202 2.27646 -0.0545405
lowerneck -13.6618 -7.34438 -13.4377
upperneck 33.4659 -8.0603 5.38093
head 14.7054 -4.23218 3.22754
rclavicle -4.45278e-014 -2.8625e-014
rhumerus 0.143577 12.8797 -78.4433
rradius 36.231
rwrist 4.54532
rhand -18.2926 7.39006
rfingers 7.12502
rthumb 7.98795 -22.439
lclavicle -4.45278e-014 -2.8625e-014
lhumerus -29.1064 -28.2012 100.351
lradius 69.0137
lwrist -3.48175
lhand -24.5437 22.4742
lfingers 7.12502
lthumb 1.95225 52.445
rfemur -37.7558 -14.3932 22.0918
rtibia 41.8614
rfoot -9.65118 -6.18746
rtoes 7.17972
lfemur -35.622 -3.06568 -16.8481
ltibia 31.0906
lfoot -5.99896 -8.95353
ltoes -14.3727
253
root 1.42816 17.5694 7.64375 11.2853 36.5467 3.1215
lowerback 31.9289 2.50773 3.02013
upperback 9.51519 4.68637 2.81975
thorax -6.62007 2.35629 -0.286755
lowerneck -13.8803 -7.3871 -13.4527
upperneck 33.0343 -8.1323 5.49754
head 14.5703 -4.24495 3.24976
rclavicle 9.54166e-015 -1.11319e-014
rhumerus 1.10939 13.3642 -78.0361
rradius 36.3749
rwrist 4.99085
rhand -18.5615 7.32838
rfingers 7.12502
rthumb 7.7284 -22.5104
lclavicle 9.54166e-015 -1.11319e-014
lhumerus -29.1398 -29.004 100.516
lradius 69.2923
lwrist -3.21263
lhand -25.2221 22.5368
lfingers 7.12502
lthumb 1.29708 52.5126
rfemur -38.7476 -14.3587 22.5064
rtibia 42.3477
rfoot -9.76705 -5.84292
rtoes 6.93979
lfemur -36.1907 -3.34745 -16.3114
ltibia 30.0337
lfoot -5.49887 -8.94669
ltoes -13.8398
254
root 1.4544 17.5477 7.63714 11.8131 36.0097 3.02127
lowerback 32.3331 2.63463 3.10746
upperback 9.65264 4.87581 2.77589
thorax -6.63136 2.44525 -0.467221
lowerneck -14.0738 -7.41925 -13.4183
upperneck 32.6796 -8.14479 5.44357
head 14.4476 -4.24824 3.20587
rclavicle -3.18055e-014 -2.06736e-014
rhumerus 2.15242 13.9472 -77.5706
rradius 36.2953
rwrist 5.4453
rhand -18.9596 7.27611
rfingers 7.12502
rthumb 7.34413 -22.5764
lclavicle -3.18055e-014 -2.06736e-014
lhumerus -29.2547 -29.6858 100.722
lradius 69.7776
lwrist -3.00491
lhand -25.5155 21.7491
lfingers 7.12502
lthumb 1.01366 51.7265
rfemur -39.7699 -14.3203 22.7301
rtibia 42.8917
rfoot -9.85904 -5.42481
rtoes 6.32613
lfemur -36.7644 -3.50568 -16.0349
ltibia 29.1461
lfoot -4.83617 -8.74575
ltoes -14.3966
255
root 1.47611 17.5213 7.63196 12.6496 35.6197 3.47865
lowerback 32.672 2.7266 2.74371
upperback 9.83162 4.87851 2.68873
thorax -6.60138 2.44847 -0.367871
lowerneck -14.4463 -7.42091 -13.3972
upperneck 32.5125 -8.06762 5.33281
head 14.4385 -4.22122 3.15665
rclavicle 4.77083e-014 -6.36111e-014
rhumerus 3.36956 14.6942 -77.0503
rradius 36.1138
rwrist 5.63294
rhand -19.4447 7.32317
rfingers 7.12502
rthumb 6.87592 -22.5452
lclavicle 4.77083e-014 -6.36111e-014
lhumerus -29.2854 -30.1014 100.876
lradius 70.3219
lwrist -3.34185
lhand -25.5283 21.849
lfingers 7.12502
lthumb 1.00128 51.8264
rfemur -40.8458 -14.4794 22.4887
rtibia 43.4793
rfoot -9.95152 -5.03816
rtoes 6.68925
lfemur -37.3851 -3.66924 -16.3261
ltibia 28.5497
lfoot -4.02116 -8.71332
ltoes -15.1937
256
root 1.48923 17.4895 7.62186 13.4198 35.476 3.62084
lowerback 32.885 2.64006 2.49433
upperback 10.0234 4.71014 2.79926
thorax -6.51006 2.37078 -0.043108
lowerneck -14.8169 -7.35938 -13.739
upperneck 32.2507 -7.84106 5.36229
head 14.3985 -4.15742 3.25148
rclavicle -7.31528e-014 2.8625e-014
rhumerus 4.81441 15.8884 -76.296
rradius 35.9655
rwrist 5.64725
rhand -19.7916 7.36782
rfingers 7.12502
rthumb 6.54096 -22.5112
lclavicle -7.31528e-014 2.8625e-014
lhumerus -29.1654 -30.0597 101.019
lradius 70.8075
lwrist -3.65406
lhand -25.7063 22.7516
lfingers 7.12502
lthumb 0.829438 52.7297
rfemur -42.0832 -14.581 22.5952
rtibia 44.0952
rfoot -10.0507 -4.97965
rtoes 7.37501
lfemur -38.3094 -3.65278 -16.4057
ltibia 28.3449
lfoot -2.88404 -8.86724
ltoes -14.7597
257
root 1.50517 17.4565 7.60269 14.0711 35.3503 3.34318
lowerback 33.4546 2.43043 2.52466
upperback 9.7123 4.50424 3.02784
thorax -6.43655 2.2583 0.253963
lowerneck -15.0267 -7.19419 -14.367
upperneck 31.8787 -7.40544 5.41427
head 14.2653 -4.03629 3.44301
rclavicle -1.90833e-014 6.04305e-014
rhumerus 6.2909 17.3813 -75.408
rradius 35.7918
rwrist 5.92445
rhand -19.8912 7.33977
rfingers 7.12502
rthumb 6.44489 -22.5422
lclavicle -1.90833e-014 6.04305e-014
lhumerus -29.1235 -29.706 101.267
lradius 71.2838
lwrist -3.81652
lhand -26.4138 22.9519
lfingers 7.12502
lthumb 0.146091 52.9316
rfemur -43.4379 -14.5803 23.0962
rtibia 44.7191
rfoot -10.146 -4.93898
rtoes 7.85719
lfemur -39.4786 -3.29 -16.2877
ltibia 28.5646
lfoot -1.79009 -9.07021
ltoes -13.9039
258
root 1.52462 17.4252 7.58105 14.7958 35.2029 3.21065
lowerback 33.798 2.49069 2.73143
upperback 9.76542 4.65327 3.01638
thorax -6.48863 2.32706 0.0721008
lowerneck -15.3381 -7.30538 -14.0691
upperneck 31.6977 -7.54615 5.22275
head 14.2438 -4.07837 3.27685
rclavicle -1.11319e-014 -6.20208e-014
rhumerus 7.41421 17.4291 -74.903
rradius 35.5163
rwrist 6.62912
rhand -20.3774 7.12692
rfingers 7.12502
rthumb 5.97544 -22.7688
lclavicle -1.11319e-014 -6.20208e-014
lhumerus -29.2674 -30.6317 101.418
lradius 71.8197
lwrist -3.92726
lhand -27.4062 23.055
lfingers 7.12502
lthumb -0.812435 53.0332
rfemur -44.7859 -14.7324 23.4798
rtibia 45.308
rfoot -10.2565 -4.60659
rtoes 8.11155
lfemur -40.653 -2.9776 -16.3323
ltibia 29.1944
lfoot -1.21368 -8.91443
ltoes -12.5414
259
root 1.54908 17.404 7.56893 15.7275 34.9996 3.67196
lowerback 34.2211 2.49432 2.54341
upperback 9.76026 4.59523 2.85253
thorax -6.64973 2.29611 0.00432735
lowerneck -15.3752 -7.31281 -13.9949
upperneck 31.4668 -7.59022 5.27094
head 14.1511 -4.07942 3.2706
rclavicle -4.6118e-014 -1.27222e-014
rhumerus 8.45707 17.8794 -74.49
rradius 35.2002
rwrist 6.99904
rhand -21.077 7.04376
rfingers 7.12502
rthumb 5.3 -22.87
lclavicle -4.6118e-014 -1.27222e-014
lhumerus -29.6168 -31.2696 101.523
lradius 72.3397
lwrist -4.11094
lhand -28.1186 23.9334
lfingers 7.12502
lthumb -1.50044 53.9078
rfemur -45.9611 -15.1908 23.3565
rtibia 45.859
rfoot -10.3669 -4.16295
rtoes 6.941
lfemur -41.6327 -2.79133 -16.9699
ltibia 30.0882
lfoot -1.47243 -8.63436
ltoes -11.8401
